<?xml version="1.0"?>
<svg xmlns="http://www.w3.org/2000/svg" xmlns:xlink="http://www.w3.org/1999/xlink" xmlns:svgjs="http://svgjs.com/svgjs" version="1.1" width="512" height="512" x="0" y="0" viewBox="0 0 62 62.26" style="enable-background:new 0 0 512 512" xml:space="preserve" class=""><g><g xmlns="http://www.w3.org/2000/svg"><path d="m62 17.26h-10.972l-1.527-7.316-8.787-1.87c-2.875-.612-5.609-1.867-7.908-3.627l-5.806-4.447-5.806 4.447c-2.299 1.76-5.033 3.015-7.908 3.627l-8.787 1.87-3.984 19.073c-.342 1.643-.515 3.321-.515 4.989 0 8.072 4.053 15.735 10.84 20.5l6.906 4.851c2.704 1.899 5.903 2.903 9.254 2.903s6.55-1.003 9.254-2.902l6.905-4.85c1.365-.959 2.631-2.054 3.781-3.248h15.06zm-21.702-7.23 7.512 1.598 1.176 5.631h-2.062l-.836-3.975-6.183-1.306c-3.517-.743-6.862-2.267-9.676-4.405l-2.229-1.695v-2.592l3.589 2.75c2.533 1.939 5.545 3.32 8.709 3.994zm-14.298 17.23h-18.984l2.586-12.288 4.906-1.036c3.804-.805 7.426-2.454 10.474-4.771l1.018-.774zm-19.605 2.953.201-.954h25.404v2h-25.769c.053-.348.091-.7.164-1.046zm25.605 3.047v2h-25.954c-.028-.417-.046-.834-.046-1.254 0-.248.029-.497.039-.746zm0 4v2h-25.221c-.196-.657-.359-1.324-.482-2zm-6 4v14.946c-1.699-.166-3.308-.747-4.698-1.717l-6.957-4.851c-3.089-2.153-5.434-5.078-6.842-8.378zm2 0h2v10h7.326l-4.628 3.229c-1.391.97-2.999 1.551-4.698 1.717zm6-11.196 5.622 3.514c.236.148.378.402.378.682s-.142.534-.378.682l-5.622 3.513zm-4-2.804h-2v-18.869l1.019.775c3.048 2.316 6.669 3.966 10.473 4.771l4.907 1.037.481 2.287h-14.88zm-18.011 25.61c-6.255-4.391-9.989-11.443-9.989-18.864 0-1.531.159-3.072.473-4.581l3.717-17.797 7.512-1.598c3.164-.674 6.176-2.055 8.709-3.995l3.589-2.749v2.593l-2.229 1.696c-2.813 2.139-6.16 3.662-9.677 4.406l-6.182 1.305-3.474 16.516c-.291 1.386-.438 2.8-.438 4.204 0 6.8 3.439 13.257 9.2 17.272l6.957 4.851c1.728 1.205 3.731 1.916 5.843 2.087v2.006c-2.57-.177-5.009-1.03-7.104-2.502zm30.02.001-6.905 4.85c-2.094 1.471-4.533 2.325-7.104 2.502v-2.006c2.112-.171 4.115-.883 5.843-2.087l6.957-4.851.026-.019h3.225c-.651.571-1.331 1.111-2.042 1.611zm17.991-3.611h-28v-8h1.287l7.396-4.622c.825-.516 1.317-1.405 1.317-2.378s-.492-1.862-1.317-2.378l-7.396-4.622h-1.287v-8h28z" fill="#29d705" data-original="#000000" style="" class=""/><path d="m50 47.26h8v-8h-8zm2-6h4v4h-4z" fill="#29d705" data-original="#000000" style="" class=""/><path d="m50 37.26h8v-8h-8zm2-6h4v4h-4z" fill="#29d705" data-original="#000000" style="" class=""/><path d="m36 45.26h12v2h-12z" fill="#29d705" data-original="#000000" style="" class=""/><path d="m36 41.26h12v2h-12z" fill="#29d705" data-original="#000000" style="" class=""/><path d="m36 27.26h2v-2h2v-2h-2v-2h-2v2h-2v2h2z" fill="#29d705" data-original="#000000" style="" class=""/><path d="m44 21.26h14v2h-14z" fill="#29d705" data-original="#000000" style="" class=""/><path d="m44 25.26h14v2h-14z" fill="#29d705" data-original="#000000" style="" class=""/></g></g></svg>
