<svg id="energy" xmlns="http://www.w3.org/2000/svg" width="512" height="512" viewBox="0 0 512 512">
  <path id="Trazado_9" data-name="Trazado 9" d="M0,134V86a20,20,0,0,1,40,0v32.538A256.019,256.019,0,0,1,512,256a20,20,0,0,1-40,0c0-119.1-96.9-216-216-216C180.335,40,110.129,80.156,71.273,144H98a20,20,0,1,1,0,40H50A50.056,50.056,0,0,1,0,134ZM462,328H413a20,20,0,0,0,0,40h26.727C400.872,431.844,330.666,472,255,472,136.449,472,40,375.1,40,256a20,20,0,0,0-40,0A255.448,255.448,0,0,0,472,391.9V425a20,20,0,0,0,40,0V378A50.057,50.057,0,0,0,462,328ZM199,378c-.015,3.146,2.714,5.014,6.211,5a9.9,9.9,0,0,0,6.761-2.7l107.412-125.52c8.2-9.476,1.579-24.781-11-24.781H262.066l52.921-85H244L181.592,253.658C174.064,267.081,183.838,284,199.312,284h40.177l-39.875,91.491A6.108,6.108,0,0,0,199,378Z" fill="#2bd600"/>
</svg>
