<svg xmlns="http://www.w3.org/2000/svg" xmlns:xlink="http://www.w3.org/1999/xlink" width="512" height="406.63" viewBox="0 0 512 406.63">
  <defs>
    <linearGradient id="linear-gradient" x1="0.844" y1="1.137" x2="0.387" y2="0.307" gradientUnits="objectBoundingBox">
      <stop offset="0" stop-color="#ebffd2"/>
      <stop offset="1" stop-color="#dcffb7"/>
    </linearGradient>
  </defs>
  <g id="exito" transform="translate(0 -52.685)">
    <g id="Grupo_13" data-name="Grupo 13">
      <path id="Trazado_10" data-name="Trazado 10" d="M501.873,153.583c-22.357-56.888-91.226-91-149.556-68.427-66.582,25.77-44.506,131.673-104.983,153.088-32.669,11.568-80.962-31.644-113.969-38.271C72.544,187.763,17.484,230.678,3.926,290.107c-13.832,60.63,8.353,141.61,74.967,158.066,79.35,19.6,120.683-51.729,187.249-72.211,68.31-21.019,144.263,28.622,200.814-31.776,41.78-44.62,57.055-134.271,34.917-190.6Z" fill="url(#linear-gradient)"/>
      <g id="Grupo_12" data-name="Grupo 12">
        <path id="Trazado_11" data-name="Trazado 11" d="M476.847,178.593A71.52,71.52,0,0,0,338.42,153.326H79.812a20,20,0,0,0-20,20v221.41a20,20,0,0,0,20,20H432.187a20,20,0,0,0,20-20V232.6a71.332,71.332,0,0,0,24.66-54Z" fill="#26bc5a" opacity="0.1"/>
        <g id="Grupo_10" data-name="Grupo 10">
          <g id="Grupo_2" data-name="Grupo 2">
            <path id="Trazado_12" data-name="Trazado 12" d="M432.187,389.736H79.812a20,20,0,0,1-20-20V148.326a20,20,0,0,1,20-20H432.187a20,20,0,0,1,20,20v221.41A20,20,0,0,1,432.187,389.736Z" fill="#fff"/>
            <path id="Trazado_13" data-name="Trazado 13" d="M262.092,223.711l190.1,146.025a20,20,0,0,1-20,20H79.812a20,20,0,0,1-20-20l190.1-146.025a10,10,0,0,1,12.184,0Z" fill="#fff"/>
            <path id="Trazado_14" data-name="Trazado 14" d="M249.908,294.352,59.812,148.326a20,20,0,0,1,20-20H432.187a20,20,0,0,1,20,20l-190.1,146.026A10,10,0,0,1,249.908,294.352Z" fill="#fff"/>
          </g>
          <g id="Grupo_8" data-name="Grupo 8">
            <path id="Trazado_15" data-name="Trazado 15" d="M370.947,363.125H338.813a5,5,0,0,1-5-5V335.971a5,5,0,0,1,5-5h32.134a5,5,0,0,1,5,5v22.154A5,5,0,0,1,370.947,363.125Z" fill="#6592fe"/>
            <g id="Grupo_7" data-name="Grupo 7">
              <g id="Grupo_4" data-name="Grupo 4">
                <g id="Grupo_3" data-name="Grupo 3">
                  <path id="Trazado_16" data-name="Trazado 16" d="M311.871,342.743H284.038a5,5,0,0,1,0-10h27.833a5,5,0,0,1,0,10Z" fill="#26bc5a"/>
                </g>
              </g>
              <g id="Grupo_6" data-name="Grupo 6">
                <g id="Grupo_5" data-name="Grupo 5">
                  <path id="Trazado_17" data-name="Trazado 17" d="M311.871,363.125H214.038a5,5,0,0,1,0-10h97.833a5,5,0,0,1,0,10Z" fill="#26bc5a"/>
                </g>
              </g>
            </g>
          </g>
          <g id="Grupo_9" data-name="Grupo 9">
            <circle id="Elipse_1" data-name="Elipse 1" cx="71.517" cy="71.517" r="71.517" transform="matrix(0.16, -0.987, 0.987, 0.16, 323.212, 212.746)" fill="#6592fe"/>
            <path id="Trazado_18" data-name="Trazado 18" d="M405.33,230.11a76.646,76.646,0,1,0-46.864-16.1l-99.42,76.372a5,5,0,0,1-6.092,0L64.992,146a15.025,15.025,0,0,1,14.82-12.674H309.178a5,5,0,0,0,0-10H79.812a25.028,25.028,0,0,0-25,25v221.41a25.028,25.028,0,0,0,25,25H432.187a25.028,25.028,0,0,0,25-25V237.6a5,5,0,0,0-10,0V359.59L316.28,259.031l50.94-39.13a76.017,76.017,0,0,0,38.11,10.209ZM195.72,259.031,64.812,359.59V158.472ZM446.99,372.049a15.01,15.01,0,0,1-14.8,12.687H79.812a15.01,15.01,0,0,1-14.8-12.687L203.928,265.336l42.934,32.98a15.018,15.018,0,0,0,18.276,0l42.934-32.981ZM338.813,153.593A66.517,66.517,0,1,1,405.33,220.11,66.592,66.592,0,0,1,338.813,153.593Z" fill="#26bc5a"/>
          </g>
          <path id="Trazado_19" data-name="Trazado 19" d="M374.114,129.2l10.206,24.389-10.206,24.389a5,5,0,0,0,6.577,6.528l61.619-26.319a5,5,0,0,0,0-9.2l-61.619-26.319A5,5,0,0,0,374.114,129.2Z" fill="#fff"/>
        </g>
        <g id="Grupo_11" data-name="Grupo 11">
          <path id="Trazado_20" data-name="Trazado 20" d="M330.828,81.671a14.493,14.493,0,1,1,10.252-4.24A14.451,14.451,0,0,1,330.828,81.671Zm0-18.991A4.5,4.5,0,1,0,334.009,64,4.487,4.487,0,0,0,330.828,62.68Z" fill="#6592fe"/>
          <path id="Trazado_21" data-name="Trazado 21" d="M218.538,459.315a14.493,14.493,0,1,1,10.253-4.24,14.457,14.457,0,0,1-10.253,4.24Zm0-18.991a4.5,4.5,0,1,0,3.182,1.316A4.487,4.487,0,0,0,218.538,440.324Z" fill="#6592fe"/>
          <path id="Trazado_22" data-name="Trazado 22" d="M294.78,94.547a4.983,4.983,0,0,1-3.535-1.464l-5.965-5.964-5.965,5.964a5,5,0,0,1-7.07-7.071l9.5-9.5a5,5,0,0,1,7.07,0l9.5,9.5a5,5,0,0,1-3.535,8.535Z" fill="#6592fe"/>
          <path id="Trazado_23" data-name="Trazado 23" d="M439.746,440.322a4.983,4.983,0,0,1-3.535-1.464l-5.965-5.964-5.965,5.964a5,5,0,0,1-7.07-7.071l9.5-9.5a5,5,0,0,1,7.07,0l9.5,9.5a5,5,0,0,1-3.535,8.535Z" fill="#6592fe"/>
          <path id="Trazado_24" data-name="Trazado 24" d="M178.884,445.072a4.983,4.983,0,0,1-3.535-1.464l-5.965-5.964-5.965,5.964a5,5,0,0,1-7.07-7.071l9.5-9.5a5,5,0,0,1,7.07,0l9.5,9.5a5,5,0,0,1-3.535,8.535Z" fill="#6592fe"/>
        </g>
      </g>
    </g>
  </g>
</svg>
