<svg xmlns="http://www.w3.org/2000/svg" width="512.001" height="512.017" viewBox="0 0 512.001 512.017">
  <g id="home" transform="translate(-0.008 0)">
    <path id="Trazado_25" data-name="Trazado 25" d="M506.1,254.205a20,20,0,0,1-28.284-.092L462.008,238.2v93.82a20,20,0,0,1-40,0V197.933L269.9,44.822a19.984,19.984,0,0,0-25.947-.054L89.979,198.44c0,.193.029.382.029.577v233a40.045,40.045,0,0,0,40,40h252a40.045,40.045,0,0,0,40-40,20,20,0,0,1,40,0,80.091,80.091,0,0,1-80,80h-252a80.091,80.091,0,0,1-80-80V238.333l-15.872,15.84A20,20,0,0,1,5.879,225.86S216.714,15.456,217,15.2a59.953,59.953,0,0,1,79.982.168C297.263,15.625,506.2,225.92,506.2,225.92A20,20,0,0,1,506.1,254.2Zm-200.1-45.188c19.172,0,36.806,7.235,49.654,20.373,13.12,13.416,20.346,32.319,20.346,53.226,0,20.457-7.955,39.365-24.319,57.8-12.8,14.423-28.758,26.442-44.192,38.065-14.336,10.8-27.878,21-35.85,31a20,20,0,0,1-31.278,0c-7.972-10-21.514-20.2-35.85-31-15.434-11.623-31.393-23.642-44.192-38.065-16.364-18.44-24.319-37.349-24.319-57.8,0-20.907,7.226-39.81,20.346-53.226,12.848-13.138,30.482-20.373,49.654-20.373,20.224,0,37.495,6.882,50,19.667,12.505-12.785,29.776-19.667,50-19.667Zm0,40c-12.083,0-20.11,4.04-25.261,12.712a38.883,38.883,0,0,0-4.8,13.816,20.185,20.185,0,0,1-19.929,18.7H255.8a19.793,19.793,0,0,1-19.725-18.582,38.3,38.3,0,0,0-5.346-14.808c-5.17-8.073-13.025-11.833-24.719-11.833-18.224,0-30,13.188-30,33.6,0,24.324,26.727,44.453,52.574,63.919,9.7,7.3,19.077,14.367,27.426,21.8,8.349-7.438,17.728-14.5,27.426-21.8,25.847-19.466,52.574-39.6,52.574-63.919,0-20.411-11.774-33.6-30-33.6Z" fill="#2bd600"/>
  </g>
</svg>
