<svg xmlns="http://www.w3.org/2000/svg" width="512.001" height="512.001" viewBox="0 0 512.001 512.001">
  <g id="motivation" transform="translate(0.001 0.001)">
    <path id="Trazado_26" data-name="Trazado 26" d="M268.243,337.669,158.348,490.635q-.315.438-.653.859c-9.592,11.936-27.4,20.5-42.757,20.5a55.048,55.048,0,0,1-37.871-15.131L6.217,429.493a20,20,0,1,1,27.564-28.986l70.857,67.381a14.888,14.888,0,0,0,21.6-1.12L235.757,314.33a20,20,0,0,1,32.486,23.339Zm229.194,6.73A57.88,57.88,0,0,0,512,306a56.928,56.928,0,0,0-21.982-44.979A56.946,56.946,0,0,0,441,175H309.426c-9.981,0-24-6.38-25.437-16.861,2.218-8.856,37-78.643,37-78.643a60.006,60.006,0,0,0-99.6-61.5,228.432,228.432,0,0,0-13.717,18.808L109.992,188.9A13.213,13.213,0,0,1,98.828,195H20a20,20,0,0,0,0,40H98.828a53.048,53.048,0,0,0,44.821-24.483L250.887,45.1A19.825,19.825,0,0,1,264.436,40a20.029,20.029,0,0,1,19.033,25.5c-2.883,5.851-39.577,80.1-39.577,92.125l.015.764C245.243,193.357,278.956,215,309.426,215H441a16.971,16.971,0,0,1,9.6,30.986C441.012,252.638,439,260.541,439,266c0,11.025,8.081,20.472,20.107,23.506A17.232,17.232,0,0,1,472,306c0,8.7-6.448,16.4-14.079,16.813C439.038,323.832,434,336.878,434,344.425c0,8.755,4.481,15.615,13.318,20.389.286.154.6.322.939.518A16.907,16.907,0,0,1,439.511,397H435c-14.019,0-25,9.963-25,22.682,0,4.75,1.675,13.641,12.894,19.83,2.136,1.178,9.106,5.665,9.106,13.917,0,5.584-1.677,18.571-17.214,18.571H231a20,20,0,1,0,0,40H414.786C447.938,512,472,487.367,472,453.429a53.789,53.789,0,0,0-5.315-23.225A56.612,56.612,0,0,0,489.4,351.885a56.705,56.705,0,0,0,8.038-7.486Z" fill="#2bd600"/>
  </g>
</svg>
