<?xml version="1.0"?>
<svg xmlns="http://www.w3.org/2000/svg" xmlns:xlink="http://www.w3.org/1999/xlink" xmlns:svgjs="http://svgjs.com/svgjs" version="1.1" width="512" height="512" x="0" y="0" viewBox="0 0 64 64" style="enable-background:new 0 0 512 512" xml:space="preserve" class=""><g><g xmlns="http://www.w3.org/2000/svg"><path d="m25 16c0-4.963-4.038-9-9-9s-9 4.037-9 9 4.038 9 9 9 9-4.037 9-9zm-9 7c-3.86 0-7-3.141-7-7s3.14-7 7-7 7 3.141 7 7-3.14 7-7 7z" fill="#000000" data-original="#000000" style=""/><path d="m16 11c-2.757 0-5 2.243-5 5s2.243 5 5 5 5-2.243 5-5-2.243-5-5-5zm0 8c-1.654 0-3-1.346-3-3s1.346-3 3-3 3 1.346 3 3-1.346 3-3 3z" fill="#000000" data-original="#000000" style=""/><path d="m53 52c0-1.654 1.346-3 3-3h7.002l-.008-3.335-.199-.266c-2.1-2.795-5.306-4.399-8.795-4.399v-28c0-1.654-1.346-3-3-3h-2v-3.184c1.161-.414 2-1.514 2-2.816 0-1.654-1.346-3-3-3s-3 1.346-3 3c0 1.302.839 2.402 2 2.816v3.184h-8v-3.184c1.161-.414 2-1.514 2-2.816 0-1.654-1.346-3-3-3s-3 1.346-3 3c0 1.302.839 2.402 2 2.816v3.184h-4v2h18c.551 0 1 .448 1 1v9h-23.873l-.329-.554c.147-.317.281-.638.4-.956l2.802-.713v-7.555l-2.802-.713c-.119-.318-.252-.639-.4-.956l1.48-2.489-5.342-5.342-2.489 1.479c-.317-.147-.637-.281-.956-.4l-.714-2.801h-7.555l-.712 2.802c-.319.119-.639.253-.956.4l-2.49-1.479-5.342 5.341 1.48 2.489c-.147.317-.281.638-.4.956l-2.802.714v7.555l2.802.713c.119.318.252.639.4.956l-1.48 2.489 5.342 5.342 2.489-1.479c.317.147.637.281.956.4l.714 2.801h7.555l.713-2.802c.319-.119.639-.253.956-.4l.553.329v4.873h-15.184c-.414-1.161-1.514-2-2.816-2-1.654 0-3 1.346-3 3s1.346 3 3 3c1.302 0 2.402-.839 2.816-2h15.184v5h-10.184c-.414-1.161-1.514-2-2.816-2-1.654 0-3 1.346-3 3s1.346 3 3 3c1.302 0 2.402-.839 2.816-2h10.184v4h-15c-3.309 0-6 2.691-6 6s2.691 6 6 6h36.295c.887 0 1.713.381 2.267 1.044 2.097 2.514 5.173 3.956 8.438 3.956 3.49 0 6.696-1.604 8.795-4.399l.199-.266.008-3.335h-7.002c-1.654 0-3-1.346-3-3zm-5-49c.551 0 1 .448 1 1s-.449 1-1 1-1-.448-1-1 .449-1 1-1zm-10 0c.551 0 1 .448 1 1s-.449 1-1 1-1-.448-1-1 .449-1 1-1zm-34 32c-.551 0-1-.448-1-1s.449-1 1-1 1 .448 1 1-.449 1-1 1zm5 7c-.551 0-1-.448-1-1s.449-1 1-1 1 .448 1 1-.449 1-1 1zm20.213-18h22.787v10h-28v-4.787zm-8.181 1.773c-.558.288-1.124.525-1.683.704l-.528.168-.598 2.355h-4.445l-.599-2.354-.528-.168c-.559-.179-1.125-.416-1.683-.704l-.493-.256-2.096 1.246-3.143-3.143 1.246-2.095-.254-.492c-.289-.56-.525-1.126-.704-1.686l-.17-.528-2.354-.597v-4.445l2.354-.598.169-.528c.179-.56.415-1.126.704-1.686l.254-.492-1.245-2.095 3.143-3.143 2.096 1.246.493-.256c.558-.288 1.124-.525 1.683-.704l.528-.168.598-2.354h4.445l.599 2.354.528.168c.559.179 1.125.416 1.683.704l.493.256 2.096-1.246 3.143 3.143-1.246 2.095.254.492c.289.56.525 1.126.704 1.686l.169.528 2.355.597v4.445l-2.354.598-.169.528c-.179.56-.415 1.126-.704 1.686l-.254.492 1.246 2.095-2.905 2.904h-.64l-1.695-1.008zm2.968 10.227h28v5.198c-.733.136-1.444.346-2.129.624.076-.263.129-.535.129-.822 0-1.654-1.346-3-3-3s-3 1.346-3 3c0 1.491 1.096 2.722 2.524 2.952-.337.314-.662.645-.961 1.004-.554.663-1.381 1.044-2.268 1.044h-19.295zm23 6c-.551 0-1-.448-1-1s.449-1 1-1 1 .448 1 1-.449 1-1 1zm13.996 15.656c-1.718 2.129-4.249 3.344-6.996 3.344-2.67 0-5.186-1.18-6.902-3.237-.935-1.12-2.321-1.763-3.803-1.763h-36.295c-2.206 0-4-1.794-4-4s1.794-4 4-4h36.295c1.481 0 2.868-.643 3.803-1.763 1.716-2.057 4.232-3.237 6.902-3.237 2.746 0 5.278 1.215 6.996 3.344l.002.656h-4.998c-2.757 0-5 2.243-5 5s2.243 5 5 5h4.998z" fill="#000000" data-original="#000000" style=""/><path d="m50 17c0-1.654-1.346-3-3-3s-3 1.346-3 3 1.346 3 3 3 3-1.346 3-3zm-4 0c0-.552.449-1 1-1s1 .448 1 1-.449 1-1 1-1-.448-1-1z" fill="#000000" data-original="#000000" style=""/><path d="m42 17c0-1.654-1.346-3-3-3s-3 1.346-3 3 1.346 3 3 3 3-1.346 3-3zm-4 0c0-.552.449-1 1-1s1 .448 1 1-.449 1-1 1-1-.448-1-1z" fill="#000000" data-original="#000000" style=""/><path d="m37 32c1.654 0 3-1.346 3-3s-1.346-3-3-3-3 1.346-3 3 1.346 3 3 3zm0-4c.551 0 1 .448 1 1s-.449 1-1 1-1-.448-1-1 .449-1 1-1z" fill="#000000" data-original="#000000" style=""/><path d="m29 32c1.654 0 3-1.346 3-3s-1.346-3-3-3-3 1.346-3 3 1.346 3 3 3zm0-4c.551 0 1 .448 1 1s-.449 1-1 1-1-.448-1-1 .449-1 1-1z" fill="#000000" data-original="#000000" style=""/><path d="m39 38c-1.654 0-3 1.346-3 3s1.346 3 3 3 3-1.346 3-3-1.346-3-3-3zm0 4c-.551 0-1-.448-1-1s.449-1 1-1 1 .448 1 1-.449 1-1 1z" fill="#000000" data-original="#000000" style=""/><path d="m26 38h2v2h-2z" fill="#000000" data-original="#000000" style=""/><path d="m26 42h2v2h-2z" fill="#000000" data-original="#000000" style=""/><path d="m48 26h2v2h-2z" fill="#000000" data-original="#000000" style=""/><path d="m48 30h2v2h-2z" fill="#000000" data-original="#000000" style=""/></g></g></svg>
